<svg width="50" height="48" viewBox="0 0 50 48" fill="none" xmlns="http://www.w3.org/2000/svg">
<path d="M0.578131 5.90706C0.557734 5.1803 0.694101 4.45767 0.977957 3.78832C1.26181 3.11897 1.6865 2.51861 2.22313 2.02806C3.39606 0.980933 4.93124 0.432731 6.50213 0.500064C8.03971 0.430894 9.54273 0.969738 10.6861 2.00006C11.2317 2.51854 11.6605 3.14725 11.9442 3.84436C12.2278 4.54147 12.3597 5.291 12.3311 6.04306C12.3475 6.74773 12.2133 7.44777 11.9373 8.09637C11.6614 8.74498 11.2502 9.32719 10.7311 9.80406C9.55091 10.8712 7.99771 11.4302 6.40813 11.3601H6.35813C5.59291 11.3929 4.82883 11.2727 4.1107 11.0063C3.39257 10.74 2.73486 10.333 2.17613 9.80906C1.6525 9.3063 1.23969 8.69967 0.964165 8.02808C0.688637 7.35648 0.556469 6.63472 0.576131 5.90906L0.578131 5.90706ZM1.18913 47.0441V15.6381H11.6261V47.0441H1.18913ZM17.4091 47.0441H27.8461V29.5081C27.8084 28.6455 27.936 27.7837 28.2221 26.9691C28.6531 25.9163 29.3407 24.9881 30.2221 24.2691C31.1758 23.5139 32.3676 23.1238 33.5831 23.1691C37.0938 23.1691 38.8491 25.5357 38.8491 30.2691V47.0441H49.2841V29.0371C49.2841 24.3984 48.1871 20.8801 45.9931 18.4821C44.8901 17.2879 43.5409 16.3475 42.0388 15.7259C40.5367 15.1043 38.9175 14.8164 37.2931 14.8821C35.3962 14.833 33.5204 15.2907 31.8593 16.2081C30.1982 17.1255 28.8118 18.4693 27.8431 20.1011V20.1951H27.7961L27.8431 20.1011V15.6381H17.4091C17.4718 16.6381 17.5031 19.7567 17.5031 24.9941C17.5031 30.2314 17.4718 37.5814 17.4091 47.0441Z" fill="#D51078"/>
</svg>
